<?xml version="1.0" encoding="utf-8"?>
<!-- Generator: Adobe Illustrator 22.0.1, SVG Export Plug-In . SVG Version: 6.00 Build 0)  -->
<svg version="1.1" id="Layer_1" xmlns="http://www.w3.org/2000/svg" xmlns:xlink="http://www.w3.org/1999/xlink" x="0px" y="0px"
	 viewBox="0 0 298.6 50" style="enable-background:new 0 0 298.6 50;" xml:space="preserve">
<g>
	<path d="M38.4,7.4c0,0.9-0.3,1.8-1,2.7c-0.7,0.9-1.6,1.4-2.7,1.4c-0.7,0-1.5-0.2-2.2-0.6c-2.2-1-4.5-1.5-7-1.5
		c-3.1,0-5.8,0.6-8,1.9c-2.3,1.3-4,3.1-5.3,5.5c-1.2,2.4-1.8,5-1.8,8.1c0,5.2,1.4,9.1,4.2,11.8c2.8,2.7,6.4,4,11,4
		c2.7,0,5-0.5,7-1.5c0.8-0.4,1.5-0.5,2.1-0.5c1.1,0,2.1,0.5,2.9,1.4c0.7,0.8,1,1.7,1,2.7c0,0.7-0.2,1.3-0.5,1.9
		c-0.4,0.6-0.9,1-1.5,1.3c-3.4,1.7-7.1,2.6-10.9,2.6c-4.3,0-8.3-0.9-11.9-2.7C10,44,7.1,41.3,5,37.8c-2.2-3.6-3.2-7.9-3.2-12.9
		c0-4.5,1-8.5,3.1-12.1s4.9-6.3,8.5-8.3c3.6-2,7.7-3,12.2-3c3.9,0,7.5,0.9,10.9,2.6C37.7,4.7,38.4,5.9,38.4,7.4z"/>
	<path d="M294.2,46.8c-0.8,0.8-1.8,1.2-2.9,1.2c-1.2,0-2.2-0.4-2.9-1.2c-0.8-0.8-1.2-1.7-1.2-2.9V5.8c0-1.1,0.4-2.1,1.2-2.9
		c0.8-0.8,1.8-1.2,3-1.2c1.1,0,2,0.4,2.8,1.2c0.8,0.8,1.2,1.7,1.2,2.9v38.1C295.5,45,295.1,46,294.2,46.8z"/>
	<g>
		<path d="M202.8,48.2H66.9c-11.8,0-21.5-9.6-21.5-21.5V23c0-11.8,9.6-21.5,21.5-21.5h135.9c11.8,0,21.5,9.6,21.5,21.5v3.7
			C224.3,38.5,214.7,48.2,202.8,48.2z M66.9,10.3c-7,0-12.8,5.7-12.8,12.8v3.7c0,7,5.7,12.8,12.8,12.8h135.9c7,0,12.8-5.7,12.8-12.8
			V23c0-7-5.7-12.8-12.8-12.8H66.9z"/>
	</g>
	<path d="M273.6,13.9c-1.6-3.5-3.8-6.3-6.8-8.3c-3-2-6.5-3.1-10.6-3.1h-15.7c-1.1,0-2.1,0.4-2.9,1.2c-0.8,0.8-1.2,1.7-1.2,2.9v26.2
		c0,2.3,1.8,4.1,4.1,4.1l0,0c2.3,0,4.1-1.8,4.1-4.1V10.1h10.9c3.9,0,6.9,1.5,8.9,4.4c2,2.9,3,6.6,3,11.1c0,4.5-1,8.2-3,11.1
		c-2,2.9-4.9,4.4-8.9,4.4h-10.9H240c-2,0-3.6,1.6-3.6,3.6v0c0,1.1,0.4,2.1,1.2,2.9c0.8,0.8,1.7,1.2,2.9,1.2h15.7
		c4.1,0,7.7-1,10.6-3.1s5.2-4.8,6.8-8.3c1.6-3.5,2.3-7.4,2.3-11.7C276,21.3,275.2,17.4,273.6,13.9z"/>
</g>
</svg>
