<?xml version="1.0" encoding="utf-8"?>
<!-- Generator: Adobe Illustrator 22.0.1, SVG Export Plug-In . SVG Version: 6.00 Build 0)  -->
<svg version="1.1" id="Layer_1" xmlns="http://www.w3.org/2000/svg" xmlns:xlink="http://www.w3.org/1999/xlink" x="0px" y="0px"
	 viewBox="0 0 186 36.7" style="enable-background:new 0 0 186 36.7;" xml:space="preserve">
<g>
	<path d="M12,2.1c0,0.3-0.1,0.6-0.3,0.9c-0.2,0.3-0.5,0.5-0.9,0.5c-0.2,0-0.5-0.1-0.7-0.2C9.4,2.9,8.6,2.7,7.8,2.7
		c-1,0-1.9,0.2-2.6,0.6c-0.8,0.4-1.3,1-1.7,1.8C3,5.9,2.8,6.8,2.8,7.8c0,1.7,0.5,3,1.4,3.9C5.1,12.6,6.3,13,7.8,13
		c0.9,0,1.6-0.2,2.3-0.5c0.3-0.1,0.5-0.2,0.7-0.2c0.4,0,0.7,0.2,1,0.5c0.2,0.3,0.3,0.6,0.3,0.9c0,0.2-0.1,0.4-0.2,0.6
		c-0.1,0.2-0.3,0.3-0.5,0.4c-1.1,0.6-2.3,0.8-3.6,0.8c-1.4,0-2.7-0.3-3.9-0.9c-1.2-0.6-2.1-1.5-2.8-2.7C0.4,10.9,0,9.5,0,7.8
		c0-1.5,0.3-2.8,1-4s1.6-2.1,2.8-2.7c1.2-0.7,2.5-1,4-1c1.3,0,2.5,0.3,3.6,0.8C11.8,1.2,12,1.6,12,2.1z"/>
	<path d="M16.6,15c-0.3,0.3-0.6,0.4-1,0.4c-0.4,0-0.7-0.1-1-0.4c-0.3-0.3-0.4-0.6-0.4-0.9V1.5c0-0.4,0.1-0.7,0.4-0.9
		c0.3-0.3,0.6-0.4,1-0.4c0.4,0,0.7,0.1,0.9,0.4C16.9,0.9,17,1.2,17,1.5v12.5C17,14.4,16.9,14.8,16.6,15z"/>
	<path d="M31.2,0.6c0.2,0.2,0.4,0.5,0.4,0.9c0,0.4-0.1,0.7-0.4,0.9c-0.2,0.2-0.6,0.3-1,0.3h-3.4v11.3c0,0.4-0.1,0.7-0.4,0.9
		c-0.3,0.3-0.6,0.4-1,0.4c-0.4,0-0.7-0.1-1-0.4c-0.3-0.3-0.4-0.6-0.4-0.9V2.7h-3.4c-0.4,0-0.7-0.1-1-0.3c-0.2-0.2-0.4-0.5-0.4-0.9
		c0-0.4,0.1-0.7,0.4-0.9c0.3-0.2,0.6-0.3,0.9-0.3h9.6C30.6,0.2,31,0.3,31.2,0.6z"/>
	<path d="M36.1,15c-0.3,0.3-0.6,0.4-1,0.4c-0.4,0-0.7-0.1-1-0.4c-0.3-0.3-0.4-0.6-0.4-0.9V1.5c0-0.4,0.1-0.7,0.4-0.9
		c0.3-0.3,0.6-0.4,1-0.4c0.4,0,0.7,0.1,0.9,0.4c0.3,0.3,0.4,0.6,0.4,0.9v12.5C36.6,14.4,36.4,14.8,36.1,15z"/>
	<path d="M51.1,2.3l-8.2,10.6h6.9c0.4,0,0.7,0.1,1,0.3c0.2,0.2,0.4,0.5,0.4,0.9c0,0.4-0.1,0.7-0.4,0.9c-0.3,0.2-0.6,0.4-0.9,0.4
		h-9.5c-0.4,0-0.7-0.1-1-0.4c-0.3-0.3-0.4-0.6-0.4-0.9c0-0.3,0.1-0.5,0.3-0.8l8.2-10.6h-6.3c-0.4,0-0.7-0.1-1-0.3
		c-0.2-0.2-0.4-0.5-0.4-0.9c0-0.4,0.1-0.7,0.4-0.9c0.3-0.2,0.6-0.3,0.9-0.3H50c0.3,0,0.7,0.1,1,0.4c0.3,0.2,0.4,0.5,0.4,0.9
		C51.5,1.8,51.3,2.1,51.1,2.3z"/>
	<path d="M63.3,13.3c0.3,0.3,0.4,0.5,0.4,0.9c0,0.4-0.1,0.7-0.4,0.9c-0.3,0.2-0.6,0.3-0.9,0.3h-7.3c-0.4,0-0.7-0.1-0.9-0.4
		c-0.3-0.3-0.4-0.6-0.4-0.9V1.5c0-0.4,0.1-0.7,0.4-0.9c0.3-0.3,0.6-0.4,0.9-0.4h7.3c0.4,0,0.7,0.1,0.9,0.4c0.3,0.2,0.4,0.5,0.4,0.9
		c0,0.4-0.1,0.7-0.4,0.9c-0.2,0.2-0.6,0.3-1,0.3h-5.9v3.7h4.9c0.4,0,0.7,0.1,0.9,0.4c0.3,0.2,0.4,0.5,0.4,0.9c0,0.4-0.1,0.7-0.4,0.9
		c-0.2,0.2-0.6,0.3-1,0.3h-4.9v4h5.9C62.8,12.9,63.1,13,63.3,13.3z"/>
	<path d="M78.6,0.6c0.2,0.2,0.3,0.5,0.3,0.9v12.6c0,0.4-0.1,0.7-0.4,0.9c-0.3,0.3-0.6,0.4-0.9,0.4c-0.2,0-0.4,0-0.6-0.1
		c-0.2-0.1-0.3-0.2-0.4-0.3L68.6,4.9v9.2c0,0.3-0.1,0.6-0.3,0.9c-0.2,0.2-0.5,0.3-0.9,0.3c-0.3,0-0.6-0.1-0.8-0.3
		c-0.2-0.2-0.3-0.5-0.3-0.9V1.5c0-0.4,0.1-0.7,0.4-0.9c0.3-0.3,0.6-0.4,0.9-0.4c0.2,0,0.4,0,0.6,0.1c0.2,0.1,0.4,0.2,0.5,0.3l7.9,10
		V1.4c0-0.3,0.1-0.6,0.3-0.9c0.2-0.2,0.5-0.3,0.9-0.3C78.1,0.2,78.3,0.3,78.6,0.6z"/>
	<path d="M179,2.7v3.8h4.7c0.4,0,0.7,0.1,0.9,0.4c0.3,0.2,0.4,0.5,0.4,0.9c0,0.3-0.1,0.6-0.4,0.8C184.3,8.9,184,9,183.6,9H179v5
		c0,0.4-0.1,0.7-0.4,0.9c-0.3,0.3-0.6,0.4-0.9,0.4c-0.4,0-0.7-0.1-1-0.4c-0.3-0.2-0.4-0.6-0.4-1V1.5c0-0.4,0.1-0.7,0.4-0.9
		c0.3-0.3,0.6-0.4,0.9-0.4h7c0.4,0,0.7,0.1,0.9,0.4c0.3,0.2,0.4,0.5,0.4,0.9c0,0.3-0.1,0.6-0.4,0.8c-0.3,0.2-0.6,0.4-0.9,0.4H179z"
		/>
	<path d="M25.1,34.5c0.3,0.3,0.4,0.5,0.4,0.9c0,0.4-0.1,0.7-0.4,0.9c-0.3,0.2-0.6,0.3-0.9,0.3h-7.3c-0.4,0-0.7-0.1-0.9-0.4
		c-0.3-0.3-0.4-0.6-0.4-0.9V22.7c0-0.4,0.1-0.7,0.4-0.9c0.3-0.3,0.6-0.4,0.9-0.4h7.3c0.4,0,0.7,0.1,0.9,0.4c0.3,0.2,0.4,0.5,0.4,0.9
		c0,0.4-0.1,0.7-0.4,0.9c-0.2,0.2-0.6,0.3-1,0.3h-5.9v3.7h4.9c0.4,0,0.7,0.1,0.9,0.4c0.3,0.2,0.4,0.5,0.4,0.9c0,0.4-0.1,0.7-0.4,0.9
		c-0.2,0.2-0.6,0.3-1,0.3h-4.9v4h5.9C24.5,34.1,24.8,34.2,25.1,34.5z"/>
	<path d="M39.9,21.7c0.3,0.2,0.4,0.5,0.4,0.9c0,0.2,0,0.4-0.1,0.6l-5.3,12.5c-0.1,0.3-0.3,0.5-0.5,0.6c-0.2,0.1-0.5,0.2-0.7,0.2
		c-0.2,0-0.5-0.1-0.7-0.2c-0.2-0.1-0.4-0.3-0.5-0.6l-5.3-12.6c-0.1-0.1-0.1-0.3-0.1-0.5c0-0.4,0.1-0.7,0.4-0.9
		c0.3-0.2,0.6-0.4,0.9-0.4c0.2,0,0.5,0.1,0.7,0.2c0.2,0.1,0.4,0.4,0.5,0.6l4.4,10.2l4-10.2c0.1-0.3,0.3-0.5,0.5-0.6
		c0.2-0.1,0.4-0.2,0.7-0.2C39.3,21.4,39.7,21.5,39.9,21.7z"/>
	<path d="M52.1,34.5c0.3,0.3,0.4,0.5,0.4,0.9c0,0.4-0.1,0.7-0.4,0.9c-0.3,0.2-0.6,0.3-0.9,0.3h-7.3c-0.4,0-0.7-0.1-0.9-0.4
		c-0.3-0.3-0.4-0.6-0.4-0.9V22.7c0-0.4,0.1-0.7,0.4-0.9c0.3-0.3,0.6-0.4,0.9-0.4h7.3c0.4,0,0.7,0.1,0.9,0.4c0.3,0.2,0.4,0.5,0.4,0.9
		c0,0.4-0.1,0.7-0.4,0.9c-0.2,0.2-0.6,0.3-1,0.3h-5.9v3.7h4.9c0.4,0,0.7,0.1,0.9,0.4c0.3,0.2,0.4,0.5,0.4,0.9c0,0.4-0.1,0.7-0.4,0.9
		c-0.2,0.2-0.6,0.3-1,0.3h-4.9v4h5.9C51.6,34.1,51.9,34.2,52.1,34.5z"/>
	<path d="M64.3,34.4c0.3,0.2,0.4,0.5,0.4,0.9c0,0.4-0.1,0.7-0.4,0.9c-0.3,0.2-0.6,0.4-0.9,0.4h-7c-0.4,0-0.7-0.1-0.9-0.4
		c-0.3-0.3-0.4-0.6-0.4-0.9V22.7c0-0.4,0.1-0.7,0.4-0.9c0.3-0.3,0.6-0.4,1-0.4c0.4,0,0.7,0.1,0.9,0.4c0.3,0.3,0.4,0.6,0.4,0.9V34
		h5.7C63.7,34,64,34.2,64.3,34.4z"/>
	<path d="M91.7,22.1c0.7,0.4,1.2,1,1.6,1.8c0.4,0.7,0.6,1.6,0.6,2.4c0,0.9-0.2,1.7-0.6,2.4c-0.4,0.8-0.9,1.3-1.6,1.8
		c-0.7,0.4-1.4,0.7-2.1,0.7h-3.8v4.1c0,0.4-0.1,0.7-0.3,1c-0.2,0.2-0.5,0.4-0.9,0.4c-0.4,0-0.7-0.1-0.9-0.4
		c-0.2-0.3-0.3-0.6-0.3-0.9V22.7c0-0.4,0.1-0.7,0.4-0.9c0.3-0.3,0.6-0.4,0.9-0.4h4.9C90.4,21.4,91.1,21.6,91.7,22.1z M90.4,28.3
		c0.3-0.2,0.5-0.5,0.6-0.9c0.2-0.4,0.2-0.8,0.2-1.2c0-0.4-0.1-0.8-0.2-1.2c-0.2-0.4-0.4-0.7-0.6-0.9c-0.3-0.2-0.5-0.3-0.8-0.3h-3.8
		v4.8h3.8C89.9,28.7,90.2,28.6,90.4,28.3z"/>
	<path d="M106,34.5c0.3,0.3,0.4,0.5,0.4,0.9c0,0.4-0.1,0.7-0.4,0.9c-0.3,0.2-0.6,0.3-0.9,0.3h-7.3c-0.4,0-0.7-0.1-0.9-0.4
		c-0.3-0.3-0.4-0.6-0.4-0.9V22.7c0-0.4,0.1-0.7,0.4-0.9c0.3-0.3,0.6-0.4,0.9-0.4h7.3c0.4,0,0.7,0.1,0.9,0.4c0.3,0.2,0.4,0.5,0.4,0.9
		c0,0.4-0.1,0.7-0.4,0.9c-0.2,0.2-0.6,0.3-1,0.3h-5.9v3.7h4.9c0.4,0,0.7,0.1,0.9,0.4c0.3,0.2,0.4,0.5,0.4,0.9c0,0.4-0.1,0.7-0.4,0.9
		c-0.2,0.2-0.6,0.3-1,0.3h-4.9v4h5.9C105.4,34.1,105.7,34.2,106,34.5z"/>
	<path d="M12,2.1c0,0.3-0.1,0.6-0.3,0.9c-0.2,0.3-0.5,0.5-0.9,0.5c-0.2,0-0.5-0.1-0.7-0.2C9.4,2.9,8.6,2.7,7.8,2.7
		c-1,0-1.9,0.2-2.6,0.6c-0.8,0.4-1.3,1-1.7,1.8C3,5.9,2.8,6.8,2.8,7.8c0,1.7,0.5,3,1.4,3.9C5.1,12.5,6.3,13,7.8,13
		c0.9,0,1.6-0.2,2.3-0.5c0.3-0.1,0.5-0.2,0.7-0.2c0.4,0,0.7,0.2,1,0.5c0.2,0.3,0.3,0.6,0.3,0.9c0,0.2-0.1,0.4-0.2,0.6
		c-0.1,0.2-0.3,0.3-0.5,0.4c-1.1,0.6-2.3,0.8-3.6,0.8c-1.4,0-2.7-0.3-3.9-0.9c-1.2-0.6-2.1-1.5-2.8-2.7C0.4,10.9,0,9.5,0,7.8
		c0-1.5,0.3-2.8,1-4s1.6-2.1,2.8-2.7c1.2-0.7,2.5-1,4-1c1.3,0,2.5,0.3,3.6,0.8C11.8,1.2,12,1.5,12,2.1z"/>
	<g>
		<path d="M167.1,15.5h-60c-3.9,0-7.1-3.2-7.1-7.1V7.2c0-3.9,3.2-7.1,7.1-7.1h60c3.9,0,7.1,3.2,7.1,7.1v1.2
			C174.1,12.3,171,15.5,167.1,15.5z M107.1,3c-2.3,0-4.2,1.9-4.2,4.2v1.2c0,2.3,1.9,4.2,4.2,4.2h60c2.3,0,4.2-1.9,4.2-4.2V7.2
			c0-2.3-1.9-4.2-4.2-4.2H107.1z"/>
	</g>
	<g>
		<path d="M74.2,36.6h-1.3c-3.9,0-7.1-3.2-7.1-7.1v-1.2c0-3.9,3.2-7.1,7.1-7.1h1.3c3.9,0,7.1,3.2,7.1,7.1v1.2
			C81.3,33.5,78.1,36.6,74.2,36.6z M72.9,24.2c-2.3,0-4.2,1.9-4.2,4.2v1.2c0,2.3,1.9,4.2,4.2,4.2h1.3c2.3,0,4.2-1.9,4.2-4.2v-1.2
			c0-2.3-1.9-4.2-4.2-4.2H72.9z"/>
	</g>
	<path d="M121,25c-0.5-1.1-1.3-2.1-2.2-2.7c-1-0.7-2.1-1-3.5-1h-5.2c-0.4,0-0.7,0.1-0.9,0.4c-0.3,0.3-0.4,0.6-0.4,0.9v8.6
		c0,0.7,0.6,1.4,1.4,1.4l0,0c0.7,0,1.4-0.6,1.4-1.4v-7.5h3.6c1.3,0,2.3,0.5,2.9,1.4c0.7,1,1,2.2,1,3.6c0,1.5-0.3,2.7-1,3.6
		c-0.6,1-1.6,1.4-2.9,1.4h-3.6h-1.5c-0.6,0-1.2,0.5-1.2,1.2l0,0c0,0.4,0.1,0.7,0.4,0.9c0.3,0.3,0.6,0.4,0.9,0.4h5.2
		c1.4,0,2.5-0.3,3.5-1c1-0.7,1.7-1.6,2.2-2.7c0.5-1.1,0.8-2.4,0.8-3.8C121.8,27.5,121.5,26.2,121,25z"/>
	<path d="M12.2,25.1C11.7,24,11,23.1,10,22.4c-1-0.7-2.1-1-3.5-1H1.3c-0.4,0-0.7,0.1-0.9,0.4C0.1,22,0,22.4,0,22.7v8.6
		c0,0.7,0.6,1.4,1.4,1.4h0c0.7,0,1.4-0.6,1.4-1.4v-7.5h3.6c1.3,0,2.3,0.5,2.9,1.4c0.7,1,1,2.2,1,3.6c0,1.5-0.3,2.7-1,3.6
		c-0.6,1-1.6,1.4-2.9,1.4H2.7H1.2c-0.6,0-1.2,0.5-1.2,1.2l0,0c0,0.4,0.1,0.7,0.4,0.9c0.3,0.3,0.6,0.4,0.9,0.4h5.2
		c1.4,0,2.5-0.3,3.5-1c1-0.7,1.7-1.6,2.2-2.7c0.5-1.1,0.8-2.4,0.8-3.8C13,27.6,12.7,26.3,12.2,25.1z"/>
	<path d="M133,36.2c-0.3,0.3-0.6,0.4-1,0.4c-0.4,0-0.7-0.1-1-0.4c-0.3-0.3-0.4-0.6-0.4-0.9V22.7c0-0.4,0.1-0.7,0.4-0.9
		c0.3-0.3,0.6-0.4,1-0.4c0.4,0,0.7,0.1,0.9,0.4c0.3,0.3,0.4,0.6,0.4,0.9v12.5C133.4,35.6,133.2,35.9,133,36.2z"/>
	<path d="M149,21.7c0.2,0.2,0.3,0.5,0.3,0.9v12.6c0,0.4-0.1,0.7-0.4,0.9c-0.3,0.3-0.6,0.4-0.9,0.4c-0.2,0-0.4,0-0.6-0.1
		c-0.2-0.1-0.3-0.2-0.4-0.3L139,26.1v9.2c0,0.3-0.1,0.6-0.3,0.9c-0.2,0.2-0.5,0.3-0.9,0.3c-0.3,0-0.6-0.1-0.8-0.3
		c-0.2-0.2-0.3-0.5-0.3-0.9V22.7c0-0.4,0.1-0.7,0.4-0.9c0.3-0.3,0.6-0.4,0.9-0.4c0.2,0,0.4,0,0.6,0.1c0.2,0.1,0.4,0.2,0.5,0.3
		l7.9,10v-9.3c0-0.3,0.1-0.6,0.3-0.9c0.2-0.2,0.5-0.3,0.9-0.3C148.5,21.4,148.8,21.5,149,21.7z"/>
	<path d="M170.3,36.2c-0.3,0.3-0.6,0.4-1,0.4c-0.4,0-0.7-0.1-1-0.4c-0.3-0.3-0.4-0.6-0.4-0.9V22.7c0-0.4,0.1-0.7,0.4-0.9
		c0.3-0.3,0.6-0.4,1-0.4c0.4,0,0.7,0.1,0.9,0.4c0.3,0.3,0.4,0.6,0.4,0.9v12.5C170.7,35.6,170.6,35.9,170.3,36.2z"/>
	<path d="M186,35.4c0,0.4-0.1,0.7-0.4,0.9c-0.2,0.2-0.5,0.4-0.8,0.4c-0.3,0-0.5-0.1-0.7-0.2c-0.2-0.2-0.4-0.4-0.5-0.6l-1.1-2.6H176
		l-1.1,2.6c-0.1,0.3-0.3,0.5-0.5,0.6c-0.2,0.2-0.4,0.2-0.7,0.2c-0.4,0-0.7-0.1-0.9-0.3c-0.2-0.2-0.3-0.5-0.3-0.8
		c0-0.1,0-0.3,0.1-0.4l5.4-12.9c0.1-0.3,0.3-0.5,0.5-0.7c0.2-0.2,0.5-0.2,0.8-0.2c0.3,0,0.5,0.1,0.7,0.2c0.2,0.2,0.4,0.4,0.5,0.6
		l5.3,12.7C185.9,35.1,186,35.2,186,35.4z M177.1,30.7h4.3l-2.2-5.1L177.1,30.7z"/>
	<path d="M164.7,25.1c-0.5-1.1-1.3-2.1-2.2-2.7c-1-0.7-2.1-1-3.5-1h-5.2c-0.4,0-0.7,0.1-0.9,0.4c-0.3,0.3-0.4,0.6-0.4,0.9v8.6
		c0,0.7,0.6,1.4,1.4,1.4l0,0c0.7,0,1.4-0.6,1.4-1.4v-7.5h3.6c1.3,0,2.3,0.5,2.9,1.4c0.7,1,1,2.2,1,3.6c0,1.5-0.3,2.7-1,3.6
		c-0.6,1-1.6,1.4-2.9,1.4h-3.6h-1.5c-0.6,0-1.2,0.5-1.2,1.2l0,0c0,0.4,0.1,0.7,0.4,0.9c0.3,0.3,0.6,0.4,0.9,0.4h5.2
		c1.4,0,2.5-0.3,3.5-1c1-0.7,1.7-1.6,2.2-2.7c0.5-1.1,0.8-2.4,0.8-3.8C165.5,27.6,165.2,26.3,164.7,25.1z"/>
	<g>
		<g>
			<path d="M83.8,15.2c-0.8-0.3-1.6-0.7-2.3-1.3c-0.4-0.3-0.6-0.7-0.6-1.1c0-0.3,0.1-0.6,0.4-0.9c0.2-0.3,0.5-0.4,0.9-0.4
				c0.3,0,0.5,0.1,0.7,0.3c0.6,0.5,1.1,0.8,1.7,1c0.5,0.2,1.2,0.3,1.9,0.3c0.8,0,1.5-0.2,2.1-0.5c0.6-0.4,0.9-0.8,0.9-1.3
				c0-0.6-0.3-1.2-0.9-1.5C88.1,9.3,87.2,9,86,8.9c-3.2-0.5-4.7-1.9-4.7-4.4c0-0.9,0.2-1.7,0.7-2.4c0.5-0.7,1.1-1.2,1.9-1.5
				C84.7,0.2,85.6,0,86.6,0c0.9,0,1.8,0.1,2.6,0.4c0.8,0.3,1.5,0.6,2,1.1c0.4,0.3,0.6,0.7,0.6,1.1c0,0.3-0.1,0.6-0.4,0.9
				c-0.2,0.3-0.5,0.4-0.9,0.4c-0.2,0-0.4-0.1-0.6-0.2c-0.4-0.3-0.9-0.6-1.6-0.8c-0.7-0.3-1.3-0.4-1.8-0.4c-0.9,0-1.6,0.2-2.1,0.5
				c-0.5,0.3-0.7,0.8-0.7,1.3c0,0.6,0.3,1.1,0.8,1.4C85,6.1,85.9,6.3,87,6.5c1.2,0.2,2.2,0.5,3,0.8c0.7,0.3,1.3,0.8,1.7,1.4
				c0.4,0.6,0.6,1.4,0.6,2.3c0,0.9-0.3,1.7-0.8,2.4c-0.5,0.7-1.2,1.2-2,1.6c-0.9,0.4-1.8,0.6-2.8,0.6C85.6,15.6,84.6,15.5,83.8,15.2
				z"/>
		</g>
	</g>
</g>
</svg>
